<?xml version="1.0" encoding="UTF-8"?><svg id="_레이어_2" xmlns="http://www.w3.org/2000/svg" viewBox="0 0 1921 1080"><g id="_레이어_1-2"><rect width="1920" height="1080" style="fill:#8e8872;"/><path d="M1105.65,713.97h-291.3c-16.49,0-29.85,13.37-29.85,29.85v242.95c0,16.49,13.37,29.85,29.85,29.85h291.3c16.49,0,29.85-13.37,29.85-29.85v-242.95c0-16.49-13.37-29.85-29.85-29.85ZM960,913.16c-26.43,0-47.86-21.43-47.86-47.86s21.43-47.86,47.86-47.86,47.86,21.43,47.86,47.86-21.43,47.86-47.86,47.86Z" style="fill:#2851ad;"/><path d="M889,788.16v-79.36h-18.5v68.38c0,8.89-7.23,16.12-16.12,16.12h-75.88v18.5h86.86c13.03,0,23.64-10.6,23.64-23.64Z" style="fill:#2e69ff;"/><path d="M907,793.81v-85.01h-8v79.36c0,18.55-15.09,33.64-33.64,33.64h-86.86v8h92.51c19.84,0,35.99-16.14,35.99-35.99Z" style="fill:#2e69ff;"/><path d="M871.01,896.8h-92.51v8h86.86c18.55,0,33.64,15.09,33.64,33.64v83.36h8v-89.01c0-19.84-16.14-35.99-35.99-35.99Z" style="fill:#2e69ff;"/><path d="M865.36,914.8h-86.86v18.5h75.88c8.89,0,16.12,7.23,16.12,16.12v72.38h18.5v-83.36c0-13.03-10.6-23.64-23.64-23.64Z" style="fill:#2e69ff;"/><path d="M860.5,777.18v-68.38h-51.13c-17.05,0-30.87,13.82-30.87,30.87v43.63h75.88c3.37,0,6.12-2.74,6.12-6.12Z" style="fill:#2e69ff;"/><path d="M854.38,943.3h-75.88v47.63c0,17.05,13.82,30.87,30.87,30.87h51.13v-72.38c0-3.37-2.74-6.12-6.12-6.12Z" style="fill:#2e69ff;"/><path d="M1054.64,811.8h86.86v-18.5h-75.88c-8.89,0-16.12-7.23-16.12-16.12v-68.38h-18.5v79.36c0,13.03,10.6,23.64,23.64,23.64Z" style="fill:#2e69ff;"/><path d="M1048.99,829.8h92.51v-8h-86.86c-18.55,0-33.64-15.09-33.64-33.64v-79.36h-8v85.01c0,19.84,16.14,35.99,35.99,35.99Z" style="fill:#2e69ff;"/><path d="M1021,942.43c0-18.55,15.09-33.64,33.64-33.64h86.86v-8h-92.51c-19.84,0-35.99,16.14-35.99,35.99v85.01h8v-79.36Z" style="fill:#2e69ff;"/><path d="M1059.5,953.41v68.38h51.13c17.05,0,30.87-13.82,30.87-30.87v-43.63h-75.88c-3.37,0-6.12,2.74-6.12,6.12Z" style="fill:#2e69ff;"/><path d="M1065.62,783.3h75.88v-43.63c0-17.05-13.82-30.87-30.87-30.87h-51.13v68.38c0,3.37,2.74,6.12,6.12,6.12Z" style="fill:#2e69ff;"/><path d="M1003,1021.8v-85.01c0-25.36,20.63-45.99,45.99-45.99h92.51v-51h-92.51c-25.36,0-45.99-20.63-45.99-45.99v-85.01h-86v85.01c0,25.36-20.63,45.99-45.99,45.99h-92.51v47h92.51c25.36,0,45.99,20.63,45.99,45.99v89.01h86ZM910.5,865.3c0-27.34,22.16-49.5,49.5-49.5s49.5,22.16,49.5,49.5-22.16,49.5-49.5,49.5-49.5-22.16-49.5-49.5Z" style="fill:#2e69ff;"/><path d="M1031,942.43v79.36h18.5v-68.38c0-8.89,7.23-16.12,16.12-16.12h75.88v-18.5h-86.86c-13.03,0-23.64,10.6-23.64,23.64Z" style="fill:#2e69ff;"/><rect x="1" width="1920" height="894" style="fill:#ffedb8;"/><path d="M1628.25,602.76h0c-2.55,0-4.66-1.86-4.71-4.21l-3.67-165.42c-.17-7.66,3.58-14.09,8.38-14.09h0c4.8,0,8.55,6.44,8.38,14.09l-3.67,165.42c-.05,2.34-2.16,4.21-4.71,4.21Z" style="fill:#303030;"/><path d="M1619.17,377.34h18.17v9.08c0,.56-.45,1.01-1.01,1.01h-16.14c-.56,0-1.01-.45-1.01-1.01v-9.08h0Z" style="fill:#ccc;"/><polygon points="1637.34 377.34 1619.17 377.34 1619.17 353.11 1637.34 360.38 1637.34 377.34" style="fill:#cec395;"/><path d="M1619.88,432.46l.2,8.8h16.36l.2-8.8c.05-2.4-.28-4.68-.91-6.67h-14.94c-.63,2-.96,4.28-.91,6.67Z" style="fill:#f6d92e;"/><path d="M1622.8,421.08h10.91c1.63,0,2.95,1.32,2.95,2.95h0c0,2.08-1.69,3.78-3.78,3.78h-9.26c-2.08,0-3.78-1.69-3.78-3.78h0c0-1.63,1.32-2.95,2.95-2.95Z" style="fill:#ccc;"/><path d="M1622.8,415.02h10.91c1.63,0,2.95,1.32,2.95,2.95h0c0,2.08-1.69,3.78-3.78,3.78h-9.26c-2.08,0-3.78-1.69-3.78-3.78h0c0-1.63,1.32-2.95,2.95-2.95Z" style="fill:#ccc;"/><polygon points="1622.53 354.19 1622.53 377.34 1625.9 377.34 1625.9 355.54 1622.53 354.19" style="fill:#e5d89e;"/><polygon points="1621.19 353.65 1621.19 377.34 1621.86 377.34 1621.86 353.92 1621.19 353.65" style="fill:#e5d89e;"/><polygon points="1619.84 353.11 1619.84 377.34 1620.52 377.34 1620.52 353.38 1619.84 353.11" style="fill:#e5d89e;"/><polygon points="1626.57 355.8 1626.57 377.34 1627.24 377.34 1627.24 356.07 1626.57 355.8" style="fill:#e5d89e;"/><polygon points="1635.99 359.57 1635.99 377.34 1636.67 377.34 1636.67 359.84 1635.99 359.57" style="fill:#e5d89e;"/><polygon points="1628.59 356.61 1628.59 377.34 1629.94 377.34 1629.94 357.15 1628.59 356.61" style="fill:#e5d89e;"/><polygon points="1631.96 357.96 1631.96 377.34 1635.32 377.34 1635.32 359.3 1631.96 357.96" style="fill:#e5d89e;"/><polygon points="1630.61 357.42 1630.61 377.34 1631.28 377.34 1631.28 357.69 1630.61 357.42" style="fill:#e5d89e;"/><path d="M1635.21,415.02h-13.91c-.48,0-.88-.34-.9-.77l-1.19-25.78c-.03-.57.4-1.03.95-1.03h16.16c.55,0,.98.46.95,1.03l-1.19,25.78c-.02.43-.42.77-.9.77Z" style="fill:#ccc;"/><path d="M1806.45,818.51h0c-2.23,0-4.07-1.63-4.11-3.68l-3.21-144.58c-.15-6.69,3.13-12.32,7.32-12.32h0c4.19,0,7.47,5.63,7.32,12.32l-3.21,144.58c-.05,2.05-1.89,3.68-4.11,3.68Z" style="fill:#303030;"/><path d="M1798.51,621.49h15.88v7.81c0,.56-.45,1.01-1.01,1.01h-13.85c-.56,0-1.01-.45-1.01-1.01v-7.81h0Z" style="fill:#ccc;"/><polygon points="1814.39 621.49 1798.51 621.49 1798.51 600.32 1814.39 606.67 1814.39 621.49" style="fill:#cec395;"/><path d="M1799.13,669.67l.17,7.69h14.3l.17-7.69c.05-2.1-.24-4.09-.79-5.83h-13.06c-.55,1.75-.84,3.74-.79,5.83Z" style="fill:#f6d92e;"/><path d="M1801.68,659.72h9.54c1.42,0,2.58,1.16,2.58,2.58h0c0,1.82-1.48,3.3-3.3,3.3h-8.09c-1.82,0-3.3-1.48-3.3-3.3h0c0-1.42,1.16-2.58,2.58-2.58Z" style="fill:#ccc;"/><path d="M1801.68,654.43h9.54c1.42,0,2.58,1.16,2.58,2.58h0c0,1.82-1.48,3.3-3.3,3.3h-8.09c-1.82,0-3.3-1.48-3.3-3.3h0c0-1.42,1.16-2.58,2.58-2.58Z" style="fill:#ccc;"/><polygon points="1801.45 601.26 1801.45 621.49 1804.39 621.49 1804.39 602.44 1801.45 601.26" style="fill:#e5d89e;"/><polygon points="1800.27 600.79 1800.27 621.49 1800.86 621.49 1800.86 601.03 1800.27 600.79" style="fill:#e5d89e;"/><polygon points="1799.1 600.32 1799.1 621.49 1799.69 621.49 1799.69 600.56 1799.1 600.32" style="fill:#e5d89e;"/><polygon points="1804.98 602.67 1804.98 621.49 1805.57 621.49 1805.57 602.91 1804.98 602.67" style="fill:#e5d89e;"/><polygon points="1813.21 605.97 1813.21 621.49 1813.8 621.49 1813.8 606.2 1813.21 605.97" style="fill:#e5d89e;"/><polygon points="1806.74 603.38 1806.74 621.49 1807.92 621.49 1807.92 603.85 1806.74 603.38" style="fill:#e5d89e;"/><polygon points="1809.68 604.56 1809.68 621.49 1812.62 621.49 1812.62 605.73 1809.68 604.56" style="fill:#e5d89e;"/><polygon points="1808.51 604.08 1808.51 621.49 1809.09 621.49 1809.09 604.32 1808.51 604.08" style="fill:#e5d89e;"/><path d="M1812.53,654.43h-12.15c-.42,0-.77-.3-.78-.67l-1.04-22.54c-.02-.5.35-.9.83-.9h14.13c.48,0,.86.41.83.9l-1.04,22.54c-.02.37-.37.67-.78.67Z" style="fill:#ccc;"/><path d="M1680.01,791.12h0c-2.16-.55-3.54-2.58-3.08-4.58l32.47-140.92c1.5-6.52,6.06-11.17,10.13-10.14h0c4.07,1.03,5.85,7.29,4.06,13.74l-38.69,139.34c-.55,1.97-2.73,3.1-4.89,2.55Z" style="fill:#303030;"/><path d="M1719.47,600.02h15.88v7.81c0,.56-.45,1.01-1.01,1.01h-13.85c-.56,0-1.01-.45-1.01-1.01v-7.81h0Z" transform="translate(201.88 -406.52) rotate(14.25)" style="fill:#ccc;"/><polygon points="1736.19 602.11 1720.8 598.2 1726.01 577.68 1739.84 587.75 1736.19 602.11" style="fill:#cec395;"/><path d="M1709.54,645.05l-1.73,7.5,13.86,3.52,2.06-7.41c.56-2.02.77-4.02.67-5.85l-12.66-3.21c-.96,1.56-1.73,3.42-2.2,5.46Z" style="fill:#f6d92e;"/><path d="M1713.6,637.12h9.54c1.42,0,2.58,1.16,2.58,2.58h0c0,1.82-1.48,3.3-3.3,3.3h-8.09c-1.82,0-3.3-1.48-3.3-3.3h0c0-1.42,1.16-2.58,2.58-2.58Z" transform="translate(210.37 -403.2) rotate(14.25)" style="fill:#ccc;"/><path d="M1714.9,631.99h9.54c1.42,0,2.58,1.16,2.58,2.58h0c0,1.82-1.48,3.3-3.3,3.3h-8.09c-1.82,0-3.3-1.48-3.3-3.3h0c0-1.42,1.16-2.58,2.58-2.58Z" transform="translate(209.14 -403.68) rotate(14.25)" style="fill:#ccc;"/><polygon points="1728.63 579.32 1723.65 598.93 1726.5 599.65 1731.19 581.18 1728.63 579.32" style="fill:#e5d89e;"/><polygon points="1727.61 578.57 1722.51 598.64 1723.08 598.78 1728.12 578.95 1727.61 578.57" style="fill:#e5d89e;"/><polygon points="1726.58 577.83 1721.37 598.35 1721.94 598.49 1727.09 578.2 1726.58 577.83" style="fill:#e5d89e;"/><polygon points="1731.7 581.56 1727.07 599.8 1727.64 599.94 1732.22 581.93 1731.7 581.56" style="fill:#e5d89e;"/><polygon points="1738.87 586.77 1735.05 601.82 1735.62 601.97 1739.38 587.15 1738.87 586.77" style="fill:#e5d89e;"/><polygon points="1733.24 582.67 1728.78 600.23 1729.92 600.52 1734.26 583.42 1733.24 582.67" style="fill:#e5d89e;"/><polygon points="1735.8 584.54 1731.63 600.95 1734.48 601.68 1738.36 586.4 1735.8 584.54" style="fill:#e5d89e;"/><polygon points="1734.78 583.79 1730.49 600.66 1731.06 600.81 1735.29 584.16 1734.78 583.79" style="fill:#e5d89e;"/><path d="M1726.28,633.58l-11.78-2.99c-.4-.1-.67-.48-.59-.85l4.54-22.1c.1-.49.56-.79,1.03-.67l13.69,3.48c.47.12.73.6.59,1.08l-6.55,21.59c-.11.36-.52.56-.93.46Z" style="fill:#ccc;"/><path d="M1753.91,831.87h0c-2.22-.18-3.92-1.96-3.8-4l8.78-144.34c.41-6.68,4.14-12.02,8.32-11.67h0c4.18.35,6.98,6.23,6.28,12.88l-15.17,143.81c-.21,2.04-2.19,3.51-4.4,3.32Z" style="fill:#303030;"/><path d="M1761.93,635.52h15.88v7.81c0,.56-.45,1.01-1.01,1.01h-13.85c-.56,0-1.01-.45-1.01-1.01v-7.81h0Z" transform="translate(59.09 -144.4) rotate(4.75)" style="fill:#ccc;"/><polygon points="1778.14 636.19 1762.32 634.87 1764.07 613.77 1779.37 621.42 1778.14 636.19" style="fill:#cec395;"/><path d="M1758.95,682.94l-.47,7.68,14.25,1.18.81-7.65c.22-2.08.1-4.09-.31-5.88l-13.01-1.08c-.69,1.7-1.14,3.66-1.27,5.75Z" style="fill:#f6d92e;"/><path d="M1762.05,673.62h9.54c1.42,0,2.58,1.16,2.58,2.58h0c0,1.82-1.48,3.3-3.3,3.3h-8.09c-1.82,0-3.3-1.48-3.3-3.3h0c0-1.42,1.16-2.58,2.58-2.58Z" transform="translate(62.11 -144.02) rotate(4.75)" style="fill:#ccc;"/><path d="M1762.49,668.34h9.54c1.42,0,2.58,1.16,2.58,2.58h0c0,1.82-1.48,3.3-3.3,3.3h-8.09c-1.82,0-3.3-1.48-3.3-3.3h0c0-1.42,1.16-2.58,2.58-2.58Z" transform="translate(61.68 -144.08) rotate(4.75)" style="fill:#ccc;"/><polygon points="1766.93 614.96 1765.25 635.12 1768.18 635.36 1769.76 616.37 1766.93 614.96" style="fill:#e5d89e;"/><polygon points="1765.79 614.39 1764.08 635.02 1764.66 635.07 1766.36 614.67 1765.79 614.39" style="fill:#e5d89e;"/><polygon points="1764.66 613.82 1762.91 634.92 1763.49 634.97 1765.23 614.11 1764.66 613.82" style="fill:#e5d89e;"/><polygon points="1770.33 616.65 1768.77 635.41 1769.35 635.46 1770.89 616.94 1770.33 616.65" style="fill:#e5d89e;"/><polygon points="1778.26 620.62 1776.97 636.09 1777.56 636.14 1778.82 620.9 1778.26 620.62" style="fill:#e5d89e;"/><polygon points="1772.03 617.5 1770.53 635.56 1771.7 635.65 1773.16 618.07 1772.03 617.5" style="fill:#e5d89e;"/><polygon points="1774.86 618.92 1773.46 635.8 1776.39 636.04 1777.69 620.34 1774.86 618.92" style="fill:#e5d89e;"/><polygon points="1773.73 618.35 1772.28 635.7 1772.87 635.75 1774.29 618.64 1773.73 618.35" style="fill:#e5d89e;"/><path d="M1773.56,668.86l-12.11-1.01c-.41-.03-.74-.36-.73-.74l.83-22.54c.02-.5.42-.87.91-.83l14.08,1.17c.48.04.82.47.76.97l-2.9,22.37c-.05.37-.42.64-.84.61Z" style="fill:#ccc;"/><path d="M1733.25,539.5h0c-3.32.48-6.32-.95-6.72-3.23l-27.94-160.81c-1.29-7.44,2.68-14.43,8.93-15.32h0c6.25-.9,12.03,4.69,12.88,12.2l18.38,162.18c.26,2.3-2.22,4.51-5.54,4.99Z" style="fill:#303030;"/><path d="M1690.45,319.37h23.89v8.94c0,.56-.45,1.01-1.01,1.01h-21.86c-.56,0-1.01-.45-1.01-1.01v-8.94h0Z" transform="translate(-28.8 244.96) rotate(-8.16)" style="fill:#ccc;"/><polygon points="1713.51 317.73 1689.86 321.12 1686.47 297.47 1711.14 301.17 1713.51 317.73" style="fill:#cec395;"/><path d="M1698.5,374.8l1.49,8.56,21.3-3.05-.98-8.63c-.27-2.35-1.02-4.51-2.11-6.35l-19.45,2.79c-.54,2.07-.65,4.35-.24,6.68Z" style="fill:#f6d92e;"/><path d="M1699.81,362.09h16.95c1.42,0,2.58,1.16,2.58,2.58v.76c0,1.82-1.48,3.3-3.3,3.3h-15.51c-1.82,0-3.3-1.48-3.3-3.3v-.76c0-1.42,1.16-2.58,2.58-2.58Z" transform="translate(-34.57 246.21) rotate(-8.16)" style="fill:#ccc;"/><path d="M1698.96,356.18h16.95c1.42,0,2.58,1.16,2.58,2.58v.76c0,1.82-1.48,3.3-3.3,3.3h-15.51c-1.82,0-3.3-1.48-3.3-3.3v-.76c0-1.42,1.16-2.58,2.58-2.58Z" transform="translate(-33.74 246.03) rotate(-8.16)" style="fill:#ccc;"/><polygon points="1691 297.89 1694.24 320.49 1698.62 319.86 1695.57 298.58 1691 297.89" style="fill:#e5d89e;"/><polygon points="1689.17 297.62 1692.49 320.74 1693.37 320.62 1690.09 297.76 1689.17 297.62" style="fill:#e5d89e;"/><polygon points="1687.35 297.35 1690.74 321 1691.61 320.87 1688.26 297.48 1687.35 297.35" style="fill:#e5d89e;"/><polygon points="1696.48 298.72 1699.5 319.74 1700.37 319.61 1697.4 298.85 1696.48 298.72" style="fill:#e5d89e;"/><polygon points="1709.27 300.64 1711.76 317.98 1712.64 317.85 1710.19 300.77 1709.27 300.64" style="fill:#e5d89e;"/><polygon points="1699.22 299.13 1702.13 319.36 1703.88 319.11 1701.05 299.4 1699.22 299.13" style="fill:#e5d89e;"/><polygon points="1703.79 299.81 1706.51 318.73 1710.88 318.11 1708.36 300.5 1703.79 299.81" style="fill:#e5d89e;"/><polygon points="1701.96 299.54 1704.75 318.99 1705.63 318.86 1702.88 299.68 1701.96 299.54" style="fill:#e5d89e;"/><path d="M1716.01,354.91l-18.1,2.6c-.62.09-1.19-.17-1.28-.59l-5.15-24.95c-.11-.55.38-1.08,1.1-1.19l21.04-3.02c.72-.1,1.34.27,1.39.83l2.07,25.39c.03.42-.44.83-1.06.92Z" style="fill:#ccc;"/><path d="M1785.55,462.38h0c-1.74.1-3.26-1.08-3.39-2.68l-9.25-112.96c-.43-5.23,1.87-9.78,5.15-9.98h0c3.28-.2,6.11,4.05,6.3,9.3l4.23,113.26c.06,1.6-1.31,2.96-3.05,3.07Z" style="fill:#303030;"/><path d="M1770.35,308.24h12.44v5.9c0,.56-.45,1.01-1.01,1.01h-10.42c-.56,0-1.01-.45-1.01-1.01v-5.9h0Z" transform="translate(-15.39 106.17) rotate(-3.41)" style="fill:#ccc;"/><polygon points="1782.58 307.88 1770.16 308.62 1769.17 292.05 1781.89 296.28 1782.58 307.88" style="fill:#cec395;"/><path d="M1772.89,346.28l.49,6.01,11.19-.67-.22-6.03c-.06-1.64-.38-3.19-.89-4.53l-10.22.61c-.35,1.39-.48,2.96-.35,4.6Z" style="fill:#f6d92e;"/><path d="M1774.55,338.15h7.47c1.12,0,2.02.91,2.02,2.02h0c0,1.43-1.16,2.59-2.59,2.59h-6.34c-1.43,0-2.59-1.16-2.59-2.59h0c0-1.12.91-2.02,2.02-2.02Z" transform="translate(-17.1 106.33) rotate(-3.41)" style="fill:#ccc;"/><path d="M1774.3,334.01h7.47c1.12,0,2.02.91,2.02,2.02h0c0,1.43-1.16,2.59-2.59,2.59h-6.34c-1.43,0-2.59-1.16-2.59-2.59h0c0-1.12.91-2.02,2.02-2.02Z" transform="translate(-16.85 106.3) rotate(-3.41)" style="fill:#ccc;"/><polygon points="1771.51 292.65 1772.46 308.48 1774.76 308.34 1773.87 293.44 1771.51 292.65" style="fill:#e5d89e;"/><polygon points="1770.57 292.34 1771.54 308.54 1772 308.51 1771.04 292.5 1770.57 292.34" style="fill:#e5d89e;"/><polygon points="1769.63 292.03 1770.62 308.59 1771.08 308.56 1770.1 292.18 1769.63 292.03" style="fill:#e5d89e;"/><polygon points="1774.34 293.59 1775.22 308.32 1775.68 308.29 1774.81 293.75 1774.34 293.59" style="fill:#e5d89e;"/><polygon points="1780.94 295.79 1781.66 307.93 1782.12 307.91 1781.41 295.94 1780.94 295.79" style="fill:#e5d89e;"/><polygon points="1775.75 294.06 1776.6 308.23 1777.52 308.18 1776.7 294.38 1775.75 294.06" style="fill:#e5d89e;"/><polygon points="1778.11 294.85 1778.9 308.1 1781.2 307.96 1780.46 295.63 1778.11 294.85" style="fill:#e5d89e;"/><polygon points="1777.17 294.53 1777.98 308.15 1778.44 308.13 1777.64 294.69 1777.17 294.53" style="fill:#e5d89e;"/><path d="M1782.66,333.73l-9.51.57c-.33.02-.61-.2-.65-.49l-1.86-17.58c-.04-.39.23-.72.61-.75l11.05-.66c.38-.02.69.28.69.67l.24,17.68c0,.29-.26.55-.58.56Z" style="fill:#ccc;"/></g></svg>