<?xml version="1.0" encoding="UTF-8"?><svg id="_레이어_2" xmlns="http://www.w3.org/2000/svg" xmlns:xlink="http://www.w3.org/1999/xlink" viewBox="0 0 1920.22 1080"><defs><linearGradient id="_무제_그라디언트_23" x1="960.22" y1="1080" x2="960.22" y2="0" gradientUnits="userSpaceOnUse"><stop offset="0" stop-color="#ddf3c5"/><stop offset=".34" stop-color="#bfdacc"/><stop offset=".76" stop-color="#a1c0d3"/><stop offset="1" stop-color="#96b7d6"/></linearGradient><linearGradient id="_무제_그라디언트_125" x1="1364.85" y1="108.39" x2="1377.05" y2="108.39" gradientUnits="userSpaceOnUse"><stop offset="0" stop-color="#f2e1b1"/><stop offset=".06" stop-color="#eddbbe"/><stop offset=".2" stop-color="#e4cede"/><stop offset=".28" stop-color="#e1caea"/><stop offset=".46" stop-color="#cbbee0"/><stop offset=".81" stop-color="#a6abd0"/><stop offset="1" stop-color="#98a4ca"/></linearGradient><linearGradient id="_무제_그라디언트_125-2" x1="509.53" y1="165.29" x2="635.81" y2="165.29" xlink:href="#_무제_그라디언트_125"/><linearGradient id="_무제_그라디언트_125-3" x1="632.28" y1="179.47" x2="745.75" y2="179.47" xlink:href="#_무제_그라디언트_125"/><linearGradient id="_무제_그라디언트_125-4" x1="781.65" y1="165.33" x2="927.86" y2="165.33" xlink:href="#_무제_그라디언트_125"/><linearGradient id="_무제_그라디언트_125-5" x1="921.23" y1="191.18" x2="1029.59" y2="191.18" xlink:href="#_무제_그라디언트_125"/><linearGradient id="_무제_그라디언트_125-6" x1="1063.94" y1="166.12" x2="1194.09" y2="166.12" xlink:href="#_무제_그라디언트_125"/><linearGradient id="_무제_그라디언트_125-7" x1="1186.83" y1="179.44" x2="1287.2" y2="179.44" xlink:href="#_무제_그라디언트_125"/><linearGradient id="_무제_그라디언트_125-8" x1="1283.2" y1="179.44" x2="1379.07" y2="179.44" xlink:href="#_무제_그라디언트_125"/><linearGradient id="_무제_그라디언트_125-9" x1="1375" y1="166.22" x2="1484.13" y2="166.22" xlink:href="#_무제_그라디언트_125"/><linearGradient id="_무제_그라디언트_125-10" x1="-274.25" y1="3343.92" x2="-274.25" y2="3290.39" gradientTransform="translate(3486.96 -1346.17) rotate(59.38)" xlink:href="#_무제_그라디언트_125"/><clipPath id="clippath"><rect y="11" width="1920" height="1069" style="fill:none;"/></clipPath><clipPath id="clippath-1"><polygon points="1422.04 391.4 964.31 319.88 504.43 399.99 44 318.83 122.5 1086.93 504.43 1084.56 504.43 1085.51 964.85 1085.51 964.85 1085.04 1415.59 1085.04 1415.57 1086.47 1812.92 1086.47 1876 320.74 1422.04 391.4" style="fill:none;"/></clipPath><linearGradient id="_무제_그라디언트_65" x1="711.52" y1="729.02" x2="501.94" y2="729.02" gradientTransform="translate(27.55 -22.07) rotate(2.13)" gradientUnits="userSpaceOnUse"><stop offset=".05" stop-color="#98c5b7" stop-opacity="0"/><stop offset="1" stop-color="#98c5b7" stop-opacity=".76"/></linearGradient><linearGradient id="_무제_그라디언트_65-2" x1="1603.64" y1="740.9" x2="1405.82" y2="740.9" gradientTransform="translate(2211.77 -780.04) rotate(88.72)" xlink:href="#_무제_그라디언트_65"/><linearGradient id="_무제_그라디언트_65-3" x1="1145.14" y1="700.9" x2="965.11" y2="700.9" gradientTransform="matrix(1,0,0,1,0,0)" xlink:href="#_무제_그라디언트_65"/></defs><g id="_레이어_1-2"><rect x=".22" width="1920" height="1080" style="fill:url(#_무제_그라디언트_23);"/><polygon points="475.1 149.24 476.97 119.86 447.54 119.19 471.67 102.34 453.84 78.91 482.07 87.27 489.27 58.72 500.33 86.01 527.14 73.84 512.71 99.5 538.94 112.87 509.88 117.58 515.78 146.42 493.97 126.64 475.1 149.24" style="fill:#ebf2c9;"/><polygon points="426.31 185.17 429.81 170.7 418.31 160.69 433.36 159.88 439.12 146.19 444.92 160.17 459.98 161.72 448.51 171.16 452.06 185.81 439.17 177.67 426.31 185.17" style="fill:#ebf2c9;"/><polygon points="1360.86 121.58 1363.55 110.44 1354.7 102.73 1366.29 102.11 1370.72 91.57 1375.19 102.33 1386.78 103.52 1377.95 110.8 1380.68 122.07 1370.76 115.81 1360.86 121.58" style="fill:#ebf2c9;"/><polygon points="1367.2 114 1368.22 109.76 1364.85 106.83 1369.26 106.6 1370.94 102.59 1372.64 106.68 1377.05 107.13 1373.7 109.9 1374.73 114.19 1370.96 111.8 1367.2 114" style="fill:url(#_무제_그라디언트_125);"/><polygon points="1459.82 221.17 1465.08 199.43 1447.8 184.39 1470.41 183.18 1479.06 162.61 1487.78 183.61 1510.4 185.93 1493.18 200.12 1498.51 222.13 1479.15 209.9 1459.82 221.17" style="fill:#ebf2c9;"/><polygon points="1056.25 184.42 1059.75 169.94 1048.25 159.93 1063.3 159.13 1069.06 145.43 1074.86 159.41 1089.92 160.96 1078.46 170.4 1082 185.05 1069.12 176.91 1056.25 184.42" style="fill:#ebf2c9;"/><path d="M571.55,221c-9.57,0-18.86-1.86-27.61-5.53-10.75-4.51-19.31-11.45-25.42-20.62-5.96-8.88-8.98-18.83-8.98-29.56,0-12.45,3.9-23.6,11.58-33.13,6.77-8.42,15.97-14.67,27.32-18.59,7.5-2.64,15.94-3.99,25.05-3.99,14.28,0,26.97,3.84,37.71,11.41,7.34,5.25,13.34,12.11,17.87,20.4,4.48,8.35,6.74,16.84,6.74,25.25,0,12.47-4.51,23.74-13.4,33.51-7.41,8.17-17.18,14.1-29.03,17.64-7.22,2.13-14.56,3.21-21.83,3.21ZM566.02,140.08c-2.67.02-4.57,1.03-6.14,3.25-1.38,1.87-2.03,4.01-2.03,6.61,0,4.81,1.11,10.56,3.31,17.08,2.23,6.63,5.06,12.57,8.43,17.66,1.14,1.66,2.56,3,4.29,4.02,1.59.93,3.11,1.38,4.65,1.38,2.49,0,4.32-.76,5.76-2.39,1.58-1.78,2.35-4.2,2.35-7.4,0-5.24-.95-11.03-2.81-17.19-1.86-6.15-4.28-11.43-7.18-15.71-1.58-2.34-3.4-4.17-5.4-5.47-1.8-1.16-3.51-1.76-5.22-1.84Z" style="fill:url(#_무제_그라디언트_125-2);"/><path d="M573.49,114.59c13.29,0,24.9,3.5,34.83,10.5,6.72,4.81,12.18,11.05,16.37,18.71,4.08,7.62,6.13,15.24,6.13,22.85,0,11.24-4.03,21.28-12.1,30.14-6.83,7.52-15.75,12.93-26.76,16.21-6.77,2-13.57,3-20.4,3-8.95,0-17.5-1.71-25.67-5.14-9.88-4.14-17.61-10.4-23.19-18.78-5.43-8.09-8.14-17.02-8.14-26.78,0-11.33,3.49-21.33,10.47-30,6.21-7.71,14.56-13.38,25.05-17,7.03-2.48,14.84-3.71,23.43-3.71M578.53,195.08c3.93,0,7.1-1.36,9.5-4.07,2.4-2.71,3.61-6.28,3.61-10.71,0-5.76-1.01-11.97-3.03-18.64-2.02-6.67-4.63-12.36-7.83-17.07-1.97-2.9-4.24-5.19-6.83-6.86-2.59-1.67-5.2-2.55-7.83-2.64-4.34,0-7.78,1.79-10.32,5.36-1.97,2.67-2.95,5.83-2.95,9.5,0,5.38,1.19,11.61,3.57,18.68,2.38,7.07,5.38,13.34,9,18.82,1.6,2.33,3.58,4.19,5.93,5.57,2.35,1.38,4.74,2.07,7.18,2.07M573.49,104.59c-9.66,0-18.65,1.44-26.72,4.27-12.24,4.23-22.19,11.01-29.56,20.17-8.41,10.44-12.68,22.65-12.68,36.26,0,11.73,3.31,22.62,9.84,32.35,6.65,9.98,15.95,17.54,27.63,22.43,9.36,3.93,19.3,5.92,29.54,5.92,7.75,0,15.57-1.15,23.23-3.41,12.77-3.81,23.3-10.23,31.34-19.08,9.75-10.7,14.69-23.11,14.69-36.86,0-9.25-2.46-18.53-7.31-27.58l-.02-.04-.02-.03c-4.9-8.96-11.4-16.38-19.32-22.05l-.03-.02-.03-.02c-11.6-8.18-25.26-12.32-40.59-12.32h0ZM573.71,181.84c-3.1-4.71-5.73-10.23-7.81-16.41-2.02-6.01-3.05-11.22-3.05-15.49,0-1.96.53-2.94,1-3.57l.05-.07.05-.07c.65-.91,1.07-1.11,1.95-1.14.77.07,1.65.42,2.63,1.05,1.43.92,2.76,2.29,3.96,4.06,2.63,3.87,4.83,8.7,6.54,14.36,1.72,5.7,2.6,10.99,2.6,15.74,0,2.85-.82,3.78-1.09,4.08-.29.33-.62.7-2.02.7-.23,0-.93,0-2.11-.69-1.06-.62-1.95-1.46-2.71-2.54h0Z" style="fill:#ebf2c9;"/><path d="M659.77,220.57c-6.57,0-26.56,0-26.56-13.21,0-2.23.55-4.1,1.64-5.58.83-1.12,2.15-2.24,4.4-3.74.35-.24.51-.41.56-.48.09-.38.41-1.97.78-7.4.35-5.3.53-10.93.53-16.73,0-2.4-.16-3.57-.26-4.05-.32-.28-1.08-.89-2.73-1.83-5.1-2.95-5.86-6.94-5.86-9.06,0-3.56,1.75-6.7,4.93-8.83,1.41-.94,4.23-2.51,12.39-5.2,5.07-1.65,10.03-3.07,14.73-4.22,6.71-1.63,9.29-1.82,10.65-1.82,2.86,0,5.43,1.04,7.43,3.01,1.56,1.55,2.55,3.41,2.92,5.46,5.28-5.66,12.49-8.54,21.45-8.54,7.5,0,14.08,1.87,19.55,5.57,4.07,2.8,6.96,6.18,8.63,10.07,1.54,3.61,2.46,8.52,2.8,15.02l1.09,25.19c.06,1.19.23,1.74.28,1.89.18.25,1,1.3,3.95,4.18,1.23,1.21,2.67,3.35,2.67,6.79,0,3.15-1.26,8.81-9.68,11.36-4.6,1.39-12.23,2.07-23.32,2.07-7.83,0-13.37-.67-16.93-2.05-3.55-1.38-5.51-3.43-6.57-5.46-1.4,2.02-3.86,4.01-8.12,5.35-4.78,1.5-11.76,2.23-21.36,2.23ZM689.79,169.22c-1.18,0-2.56.19-2.91.74-.2.31-1.17,2.17-1.17,8.47v14.14c0,3.14.27,4.04.28,4.08.03.06.5,1.13,3.19,4.84l.12.17c.18.28.35.56.5.85.46-.57,1.32-1.51,3.21-3.41.29-.49,1.7-3.58,1.7-16.53,0-7.12-1.04-10.59-1.91-12.24-.18-.35-.59-1.11-3.02-1.11Z" style="fill:url(#_무제_그라디언트_125-3);"/><path d="M706.78,143.37c6.52,0,12.1,1.57,16.75,4.71,3.26,2.24,5.53,4.87,6.83,7.89,1.29,3.02,2.09,7.46,2.4,13.32l1.09,25.14c.1,1.9.43,3.31.97,4.21.54.91,2.13,2.64,4.77,5.21.78.76,1.16,1.83,1.16,3.21,0,3.14-2.04,5.33-6.13,6.57-4.09,1.24-11.38,1.86-21.87,1.86-7.14,0-12.18-.57-15.13-1.71-3.05-1.19-4.58-3.12-4.58-5.78,0-.95.16-1.65.47-2.11.31-.45,1.34-1.56,3.1-3.32,2.07-2,3.1-8.67,3.1-20,0-6.57-.83-11.43-2.48-14.57-1.35-2.52-3.83-3.79-7.45-3.79s-5.84,1.02-7.14,3.07c-1.29,2.05-1.94,5.76-1.94,11.14v14.14c0,2.81.19,4.74.58,5.78.39,1.05,1.67,3.07,3.84,6.07.57.86.85,1.83.85,2.93,0,2.81-2.12,4.88-6.36,6.21-4.24,1.33-10.86,2-19.86,2-14.38,0-21.56-2.74-21.56-8.21,0-1.14.22-2.01.66-2.61.44-.59,1.49-1.44,3.14-2.54,1.34-.9,2.2-1.94,2.56-3.11.36-1.17.7-4.04,1.01-8.61.36-5.43.54-11.12.54-17.07,0-3.29-.27-5.44-.81-6.46-.54-1.02-2.11-2.27-4.69-3.75-2.22-1.29-3.34-2.86-3.34-4.71s.9-3.46,2.71-4.68c1.81-1.21,5.53-2.75,11.17-4.61,4.96-1.62,9.75-2.99,14.35-4.11,4.6-1.12,7.76-1.68,9.46-1.68,1.55,0,2.86.52,3.92,1.57,1.06,1.05,1.59,2.29,1.59,3.71,0,.14-.03.74-.08,1.79-.05.38-.08.71-.08,1,0,2.29,1.03,3.43,3.1,3.43,1.24,0,2.56-.9,3.96-2.71,4.45-5.9,10.91-8.86,19.39-8.86M706.78,133.37c-7.63,0-14.34,1.92-19.84,5.64-.32-.38-.66-.75-1.02-1.1-2.96-2.92-6.74-4.46-10.95-4.46-1.75,0-4.67.22-11.82,1.96-4.82,1.17-9.9,2.62-15.09,4.32-6.78,2.23-10.98,4.02-13.64,5.81-4.61,3.09-7.14,7.7-7.14,12.98,0,3.19,1.08,9.18,8.33,13.37h.02s.02.03.02.03c.16.09.31.18.45.26.01.36.02.78.02,1.27,0,5.69-.18,11.21-.52,16.41-.16,2.37-.31,3.93-.42,4.94-2.02,1.44-3.36,2.69-4.36,4.04-1.73,2.35-2.61,5.22-2.61,8.54s1.15,11.44,11.83,15.51c4.78,1.82,11.24,2.71,19.73,2.71,10.11,0,17.59-.8,22.85-2.46,2.54-.8,4.6-1.8,6.27-2.93,1.46,1.18,3.17,2.17,5.1,2.92,4.22,1.64,10.18,2.4,18.76,2.4,11.75,0,19.62-.73,24.77-2.29,8.28-2.51,13.23-8.54,13.23-16.14,0-5.18-2.26-8.48-4.15-10.35-1.4-1.36-2.25-2.25-2.76-2.8l-1.08-25.06v-.05s0-.05,0-.05c-.38-7.1-1.42-12.57-3.19-16.72-2.05-4.78-5.53-8.89-10.36-12.2l-.03-.02-.03-.02c-6.32-4.26-13.84-6.43-22.35-6.43h0Z" style="fill:#ebf2c9;"/><path d="M895.17,220.57c-9.26,0-16.08-.62-20.83-1.88-9.44-2.55-10.85-8.24-10.85-11.4,0-2.31.73-4.4,2.1-6.04.64-.76,1.81-1.93,5.62-4.81,0,0,.49-.59.84-2.64.3-1.76.66-5.57.66-13.72,0-.22,0-.44,0-.64-.91,1.62-2.14,3.94-3.77,7.27l-9.3,19.19c-1.86,3.75-3.32,6.17-4.62,7.65-2.45,2.79-5.17,3.38-7.02,3.38-2.5,0-4.79-.99-6.61-2.87-.63-.63-1.55-1.76-4.68-7.31-2.08-3.69-3.85-7.03-5.24-9.94l-8.23-17.04c-.12,3.01-.18,5.89-.18,8.6,0,5.72.36,7.84.54,8.55,0,.01,0,.02.01.03.4.23,1.41.78,3.63,1.82,3.46,1.64,5.43,4.82,5.43,8.74,0,13-20.52,13-27.26,13-15.77,0-23.77-4.3-23.77-12.78,0-3.46,1.4-5.48,2.58-6.57.82-.75,2.16-1.71,6.37-3.57l.09-.04c.59-.25.85-.47.91-.53.02-.06.52-1.2,1.02-5.57.45-3.68.88-9.87,1.29-18.41.41-8.57.62-16,.62-22.08,0-9.5-1.03-12.72-1.47-13.67-.1-.2-.19-.33-.23-.39-.17-.11-.78-.49-2.3-1.19-6.94-3.06-8.41-7.58-8.41-10.83,0-2.98,1.21-5.78,3.51-8.09,2.02-2.03,4.64-3.46,7.8-4.26,2.44-.67,5.66-1.24,9.74-1.72,3.98-.47,7.43-.71,10.25-.71,7.27,0,12.43.59,15.75,1.8,2.04.72,3.76,1.79,5.08,3.17,1.1,1.14,2.35,2.99,4.06,5.97l16.1,27.3c1.01,1.73,1.7,2.81,2.15,3.49.29-.41.69-1.04,1.2-1.95l10.94-19.64c1.31-2.46,2.2-4.12,2.61-4.88,2.95-5.55,5.98-9.27,9.24-11.33,4.03-2.61,10.36-3.85,19.89-3.85,17.88,0,26.95,4.78,26.95,14.21,0,2.4-.58,4.47-1.73,6.14-.95,1.39-2.48,2.77-4.82,4.36-1.24.87-2.03,2.17-2.4,4.04-1.12,6.16-1.69,13.94-1.69,23.03,0,11.86.61,22.37,1.82,31.25.18,1.28.37,1.92.47,2.18.33.28,1.26,1.01,3.59,2.42,3.38,2.07,5.21,5.21,5.21,8.85,0,3.27-1.41,9.17-10.83,11.88-2.72.83-5.7,1.41-8.78,1.67-2.92.25-7.2.38-13.08.38Z" style="fill:url(#_무제_그라디언트_125-4);"/><path d="M813.42,115.09c6.62,0,11.3.5,14.04,1.5,1.34.48,2.4,1.12,3.18,1.93.78.81,1.89,2.48,3.34,5l16.13,27.35c1.76,3,2.97,4.83,3.65,5.5.67.67,1.6,1,2.79,1,1.03,0,1.95-.36,2.75-1.07.8-.71,1.75-2.05,2.83-4l10.94-19.64c1.34-2.52,2.22-4.17,2.64-4.93,2.53-4.76,5.04-7.93,7.52-9.5,3.15-2.05,8.89-3.07,17.22-3.07,14.63,0,21.95,3.07,21.95,9.21,0,1.38-.28,2.49-.85,3.32-.57.83-1.73,1.85-3.49,3.04-2.38,1.67-3.88,4.07-4.5,7.21-1.19,6.57-1.78,14.57-1.78,24,0,12.14.62,22.78,1.86,31.92.31,2.24.79,3.76,1.44,4.57.65.81,2.31,2.02,5,3.64,1.86,1.14,2.79,2.67,2.79,4.57,0,3.33-2.4,5.69-7.21,7.07-2.48.76-5.09,1.26-7.83,1.5-2.74.24-6.96.36-12.64.36-8.74,0-15.26-.57-19.55-1.71-4.76-1.29-7.14-3.47-7.14-6.57,0-1.14.31-2.08.93-2.82.62-.74,2.22-2.08,4.81-4.04,1.34-1,2.26-2.93,2.75-5.79.49-2.86.74-7.71.74-14.57,0-3.81-.19-6.31-.58-7.5-.39-1.19-1.2-1.79-2.44-1.79-1.45,0-2.84.92-4.19,2.75-1.34,1.83-3.36,5.49-6.05,10.96l-9.31,19.21c-1.6,3.24-2.9,5.42-3.88,6.53-.98,1.12-2.07,1.68-3.26,1.68s-2.15-.45-3.02-1.36c-.57-.57-1.88-2.67-3.92-6.28-2.04-3.62-3.74-6.83-5.08-9.64l-10.24-21.21c-1.4-2.95-2.87-4.43-4.42-4.43-1.66,0-2.56,1.26-2.71,3.79-.36,5.62-.54,10.81-.54,15.57s.26,8.31.78,10.07c.36,1.05.84,1.81,1.44,2.29.59.48,2.21,1.33,4.85,2.57,1.71.81,2.56,2.21,2.56,4.21,0,5.33-7.42,8-22.26,8-12.52,0-18.77-2.59-18.77-7.78,0-1.33.32-2.3.97-2.89.65-.59,2.31-1.49,5-2.68,1.71-.71,2.86-1.69,3.45-2.93.59-1.24,1.1-3.64,1.51-7.21.47-3.81.9-10.06,1.32-18.75.41-8.69.62-16.13.62-22.32,0-7.76-.65-13.02-1.94-15.78-.47-.95-1-1.67-1.59-2.14-.6-.48-1.72-1.09-3.37-1.86-3.67-1.62-5.51-3.71-5.51-6.28,0-1.67.69-3.19,2.06-4.57,1.37-1.38,3.19-2.36,5.47-2.93,2.27-.62,5.31-1.15,9.11-1.61,3.8-.45,7.02-.68,9.66-.68M813.42,105.09c-3.06,0-6.6.24-10.84.75-4.28.51-7.71,1.12-10.47,1.86-4.01,1.02-7.39,2.89-10.03,5.56-3.24,3.27-4.96,7.29-4.96,11.61,0,3.86,1.48,10.99,11.39,15.4.11.05.21.1.3.14.3,1.41.73,4.5.73,10.53s-.21,13.34-.61,21.84c-.4,8.42-.82,14.48-1.26,18.01v.03s0,.03,0,.03c-.14,1.19-.27,2.08-.38,2.74-3.17,1.47-5.03,2.59-6.42,3.87-1.92,1.77-4.2,4.97-4.2,10.25,0,6.72,3.96,12.21,10.86,15.08,4.4,1.82,10.25,2.71,17.91,2.71,8.66,0,15.23-.85,20.08-2.59,5.54-1.99,8.59-5.04,10.25-8.01.88,1.32,1.49,2.07,2.1,2.68,2.74,2.8,6.35,4.34,10.15,4.34,4.07,0,7.9-1.8,10.77-5.08.53-.61,1.07-1.31,1.62-2.12,1.88,3.39,5.55,6.87,12.61,8.78,5.22,1.39,12.45,2.06,22.16,2.06,6.03,0,10.44-.13,13.51-.39,3.4-.3,6.7-.93,9.82-1.88,12.96-3.76,14.37-12.9,14.37-16.66,0-5.37-2.76-10.14-7.56-13.09l-.04-.02-.04-.02c-.72-.43-1.27-.78-1.69-1.06-1.17-8.62-1.76-18.9-1.76-30.51,0-8.75.54-16.19,1.61-22.12.13-.64.28-.8.38-.88,2.82-1.92,4.74-3.7,6.04-5.61,1.72-2.52,2.6-5.53,2.6-8.96,0-7.15-4.23-13.03-11.62-16.13-4.94-2.07-11.59-3.08-20.33-3.08-10.5,0-17.69,1.48-22.61,4.65-3.99,2.54-7.57,6.85-10.94,13.18-.42.78-1.3,2.41-2.61,4.88l-7.83,14.07-13.84-23.46c-1.93-3.36-3.36-5.42-4.76-6.88-1.86-1.94-4.22-3.42-7.02-4.42-3.94-1.42-9.47-2.09-17.42-2.09h0ZM878.65,179.36h0Z" style="fill:#ebf2c9;"/><path d="M952.22,244c-8.76,0-16.06-2.23-21.69-6.63-4.86-3.78-7.43-8.92-7.43-14.87,0-5.05,1.8-9.36,5.35-12.83,3.51-3.43,7.86-5.17,12.92-5.17s9.27,1.64,12.5,4.86c1.55,1.5,2.6,2.91,3.23,4.31.29.65.71,1.76,1.51,4.68.06-.22.09-.5.09-.85s-.17-2.47-3.48-8.93l-18.7-36.65c-2.43-4.71-3.36-5.74-3.46-5.84-.07-.06-.99-.83-4.85-2.42-2-.76-3.68-2.15-5-4.12-1.31-1.95-1.97-3.98-1.97-6.03,0-7.03,6.03-11.6,17.91-13.57,6.35-1.04,13.64-1.57,21.69-1.57,6.07,0,10.83.6,14.53,1.83,5.51,1.8,7.99,4.87,9.05,7.69.95-2.44,3.14-5,7.71-6.89,4.17-1.72,9.41-2.56,16.03-2.56,6.24,0,10.94.74,14.36,2.25,6.17,2.73,7.09,7.46,7.09,10.04,0,3.12-1.11,5.83-3.2,7.85-1.7,1.64-4.23,2.97-7.97,4.18-1.48.52-2.61,1.33-3.44,2.48-2.01,2.82-4.46,7.78-7.25,14.72l-10.23,25.9c-2.64,6.69-5.35,12.26-8.06,16.57-2.81,4.46-6.06,8.33-9.66,11.49-7.63,6.7-16.91,10.1-27.58,10.1ZM981.65,160.41c.02.42.15.9.39,1.45.32.72,1.12,2.3,3.17,5.73.38.64.71,1.15.99,1.54.17-.25.35-.54.56-.89,1.25-2.14,1.88-4.14,1.88-5.95,0-1.31-.41-1.75-.59-1.94-1.63-1.78-2.78-3.47-3.48-5.12-.45,1.28-1.18,2.59-2.18,3.95-.52.69-.69,1.09-.73,1.22Z" style="fill:url(#_무제_그라디언트_125-5);"/><path d="M960.83,143.37c5.48,0,9.8.52,12.95,1.57,4.24,1.38,6.36,3.74,6.36,7.07,0,1.19-.6,2.6-1.78,4.21-1.14,1.52-1.71,2.88-1.71,4.07s.27,2.33.81,3.57c.54,1.24,1.69,3.33,3.45,6.28,1.96,3.33,3.7,5,5.2,5,1.6,0,3.26-1.46,4.96-4.39,1.71-2.93,2.56-5.75,2.56-8.46,0-2.19-.65-3.97-1.94-5.36-1.97-2.14-2.95-3.97-2.95-5.5,0-2.43,1.76-4.37,5.27-5.82,3.52-1.45,8.22-2.18,14.12-2.18,10.96,0,16.44,2.43,16.44,7.28,0,1.76-.56,3.18-1.67,4.25-1.11,1.07-3.14,2.08-6.09,3.04-2.48.86-4.45,2.29-5.9,4.29-2.28,3.19-4.89,8.45-7.83,15.78l-10.24,25.93c-2.53,6.43-5.08,11.68-7.64,15.75-2.56,4.07-5.47,7.53-8.73,10.39-6.72,5.9-14.82,8.86-24.28,8.86-7.65,0-13.86-1.86-18.62-5.57-3.67-2.86-5.51-6.5-5.51-10.93,0-3.67,1.28-6.75,3.84-9.25,2.56-2.5,5.7-3.75,9.42-3.75s6.72,1.14,9,3.43c1.09,1.05,1.81,1.98,2.17,2.79.36.81.9,2.59,1.63,5.36.57,2.09,1.86,3.14,3.88,3.14,1.6,0,2.95-.64,4.03-1.93,1.09-1.29,1.63-2.88,1.63-4.79,0-2.24-1.35-5.97-4.03-11.21l-18.69-36.64c-1.97-3.81-3.44-6.19-4.42-7.14-.98-.95-3.15-2.12-6.52-3.5-1.04-.38-1.93-1.13-2.68-2.25-.75-1.12-1.12-2.2-1.12-3.25,0-4.24,4.58-7.12,13.73-8.64,6.1-1,13.06-1.5,20.87-1.5M960.83,133.37c-8.31,0-15.88.55-22.48,1.63-5.98,1-10.55,2.53-14.01,4.71-7.05,4.44-8.1,10.55-8.1,13.8,0,3.06.95,6.03,2.82,8.82,1.86,2.78,4.38,4.85,7.3,5.97,1.76.73,2.74,1.22,3.24,1.5.4.6,1.19,1.9,2.49,4.43l13.03,25.53c-1.22-.18-2.47-.27-3.75-.27-6.32,0-11.99,2.28-16.41,6.59-4.48,4.38-6.85,10.05-6.85,16.4,0,7.54,3.24,14.05,9.37,18.82,6.52,5.09,14.86,7.68,24.76,7.68,11.92,0,22.31-3.82,30.88-11.34,3.97-3.48,7.53-7.71,10.59-12.58,2.92-4.64,5.69-10.33,8.48-17.4l10.23-25.89c3.26-8.11,5.42-11.9,6.66-13.65.12-.16.32-.41.98-.65,4.45-1.45,7.57-3.14,9.82-5.31,3.1-2.98,4.73-6.94,4.73-11.45,0-6.45-3.67-11.77-10.06-14.61-4.07-1.8-9.43-2.68-16.38-2.68s-13.15.96-17.93,2.94c-2.3.95-4.14,2.07-5.62,3.27-1.87-1.64-4.37-3.12-7.68-4.2-4.22-1.4-9.48-2.07-16.08-2.07h0Z" style="fill:#ebf2c9;"/><path d="M1164.58,221.86c-11.53,0-20.07-3.04-25.38-9.04-2.32-2.58-4.3-5.85-5.89-9.7-1.47-3.57-3.12-8.86-5.06-16.19-1.26-4.78-2.58-6.65-3.26-7.33-.79-.8-2.04-1.29-3.73-1.46-.08.86-.16,2.19-.16,4.23,0,5.58.36,9.91,1.08,12.88,0,.02.01.04.02.05.21.15.69.45,1.58.92,6.37,3.22,7.33,8.05,7.33,10.64,0,3.15-1.3,8.82-10.03,11.46-4.84,1.47-12.48,2.18-23.36,2.18-9.22,0-33.7,0-33.7-15,0-2.9,1.08-4.83,1.99-5.93.96-1.16,2.54-2.39,5.12-3.97,1.37-.83,2.25-1.7,2.63-2.59.26-.61.91-2.63,1.28-8.12.17-2.28.38-10.33.38-36.02,0-7.99-.55-10.98-.87-12.04-.31-1.01-.88-1.63-1.96-2.13-2.89-1.27-4.87-2.52-6.14-3.88-1.64-1.76-2.5-4.06-2.5-6.66,0-3.2,1.34-6.08,3.89-8.34,2.1-1.86,4.9-3.21,8.35-4.02,2.62-.62,5.99-.92,10.3-.92,1.17,0,3.8.08,13.15.73,1.18.09,3.11.13,5.78.13,4.52,0,10.66-.28,18.25-.84,5.11-.35,8.6-.51,10.68-.51,12.03,0,22.21,2.76,30.26,8.22,7.95,5.4,11.97,12.99,11.97,22.57,0,5.32-1.41,10.25-4.19,14.64-2.02,3.19-4.61,5.83-7.73,7.89,4.99,2.14,8.85,5.15,11.5,8.98,3.01,4.35,5.06,10.57,6.27,18.99.29,1.99.61,2.96.77,3.37.42.22,1.47.7,3.71,1.29l.11.03c2.04.59,3.82,1.87,5.14,3.69,1.28,1.77,1.96,3.86,1.96,6.04,0,2.66-1.01,5.24-3.01,7.65-1.74,2.1-3.98,3.76-6.66,4.93-5.05,2.16-11.53,3.2-19.84,3.2ZM1160.45,165.98h0ZM1121.28,135.82c-.04.26-.08.61-.11,1.07l-.84,16.32c1.98-.08,4.25-.47,5.41-1.68,1.11-1.16,1.72-3.63,1.72-6.94,0-8.78-3.39-8.78-5.63-8.78-.22,0-.41,0-.56.02Z" style="fill:url(#_무제_그라디언트_125-6);"/><path d="M1134.33,115.37c11.07,0,20.22,2.45,27.46,7.36,6.52,4.43,9.77,10.57,9.77,18.43,0,4.38-1.14,8.37-3.41,11.96-2.28,3.6-5.4,6.3-9.39,8.11-1.66.76-2.48,1.67-2.48,2.71,0,1.38,1.27,2.5,3.8,3.36,5.43,1.81,9.41,4.55,11.95,8.21,2.53,3.67,4.34,9.28,5.43,16.86.47,3.14,1.14,5.18,2.02,6.11.88.93,2.92,1.82,6.13,2.68.98.29,1.81.89,2.48,1.82.67.93,1.01,1.96,1.01,3.11,0,1.48-.62,2.96-1.86,4.46-1.24,1.5-2.84,2.68-4.81,3.54-4.34,1.86-10.29,2.79-17.84,2.79-10.08,0-17.3-2.45-21.64-7.36-1.97-2.19-3.63-4.95-5-8.28-1.37-3.33-2.99-8.52-4.85-15.57-1.19-4.52-2.7-7.71-4.54-9.57-1.84-1.86-4.46-2.86-7.87-3-1.97,0-3.22.55-3.76,1.64-.54,1.1-.81,3.64-.81,7.64,0,6.05.41,10.76,1.24,14.14.26.95.65,1.69,1.16,2.21.52.52,1.5,1.17,2.95,1.93,3.1,1.57,4.65,3.64,4.65,6.21,0,3.14-2.16,5.37-6.48,6.68-4.32,1.31-11.62,1.96-21.91,1.96-19.13,0-28.7-3.33-28.7-10,0-1.14.28-2.06.85-2.75.57-.69,1.86-1.65,3.88-2.89,2.28-1.38,3.81-3.01,4.62-4.89.8-1.88,1.36-5.13,1.67-9.75.26-3.38.39-15.5.39-36.35,0-6.62-.36-11.12-1.09-13.5-.72-2.38-2.28-4.12-4.65-5.21-2.28-1-3.8-1.92-4.58-2.75-.78-.83-1.16-1.92-1.16-3.25,0-1.76.74-3.3,2.21-4.61,1.47-1.31,3.53-2.27,6.17-2.89,2.22-.52,5.27-.79,9.15-.79,1.71,0,5.97.24,12.8.71,1.29.1,3.34.14,6.13.14,4.65,0,10.86-.29,18.62-.86,4.91-.33,8.35-.5,10.32-.5M1119.43,158.22c4.55,0,7.86-1.08,9.93-3.25,2.07-2.17,3.1-5.63,3.1-10.39,0-9.19-3.54-13.78-10.63-13.78-2.02,0-3.44.43-4.27,1.29-.83.86-1.29,2.38-1.4,4.57l-.85,16.64v.64c0,1.71.27,2.86.81,3.43.54.57,1.64.86,3.3.86M1134.33,105.37c-2.2,0-5.79.17-10.99.52h-.03s-.03,0-.03,0c-7.48.55-13.49.83-17.88.83-3.17,0-4.68-.06-5.39-.12-9.55-.67-12.3-.74-13.54-.74-4.7,0-8.44.34-11.45,1.05-4.25,1-7.79,2.73-10.51,5.15-3.59,3.2-5.57,7.49-5.57,12.08,0,3.88,1.33,7.36,3.85,10.07,1.65,1.78,3.87,3.26,7.13,4.75.19,1.16.51,3.94.51,9.89,0,25.53-.2,33.45-.36,35.59v.05s0,.05,0,.05c-.27,3.95-.66,5.7-.83,6.29-.12.1-.32.26-.66.47h-.02s-.02.03-.02.03c-3.12,1.91-5.02,3.42-6.36,5.05-1.43,1.74-3.14,4.73-3.14,9.11,0,3.64,1.35,12.58,13.89,16.94,5.9,2.06,14.02,3.06,24.81,3.06,11.54,0,19.43-.76,24.81-2.39,6.38-1.94,9.8-5.27,11.61-8.54.43.55.88,1.08,1.33,1.59,6.31,7.1,16.1,10.7,29.11,10.7,9,0,16.12-1.17,21.77-3.59h.03s.03-.03.03-.03c3.41-1.49,6.27-3.61,8.51-6.33,3.44-4.15,4.16-8.19,4.16-10.84,0-3.24-1-6.34-2.9-8.97-1.98-2.74-4.68-4.66-7.79-5.56l-.1-.03-.11-.03c-.29-.08-.54-.15-.78-.22-.02-.12-.04-.24-.06-.37-1.31-9.16-3.64-16.07-7.1-21.07-1.86-2.69-4.18-5.03-6.96-7.01,1.21-1.33,2.31-2.78,3.3-4.34,3.29-5.21,4.96-11.03,4.96-17.31,0-11.17-4.89-20.4-14.15-26.7-8.91-6.03-20.03-9.09-33.08-9.09h0Z" style="fill:#ebf2c9;"/><path d="M1233.02,221c-13.52,0-24.7-3.67-33.25-10.9-8.58-7.25-12.94-16.8-12.94-28.39,0-12.8,5.24-23.4,15.57-31.5,10.36-8.19,23.07-12.35,37.76-12.35,10.38,0,19.66,2.54,27.58,7.56,5.76,3.64,10.45,8.45,13.95,14.3,3.67,6.21,5.52,12.78,5.52,19.56,0,12.01-5.91,22.25-17.56,30.44-10.64,7.48-22.96,11.27-36.62,11.27ZM1233.88,164.37c-1.02.01-1.39.33-1.65.64-.2.22-.8.9-.8,2.86,0,2.46.54,6,1.61,10.53,1.09,4.64,2.4,8.78,3.89,12.31,1.15,2.8,2.4,2.8,3.23,2.8,1.31,0,1.9,0,1.9-3.07,0-3.61-.54-7.82-1.62-12.53-1.06-4.66-2.34-8.44-3.79-11.24-1.13-2.14-2.17-2.28-2.77-2.3Z" style="fill:url(#_무제_그라디언트_125-7);"/><path d="M1240.16,142.87c9.46,0,17.76,2.26,24.9,6.78,5.12,3.24,9.23,7.45,12.33,12.64,3.21,5.43,4.81,11.09,4.81,17,0,10.33-5.15,19.12-15.44,26.35-9.83,6.9-21.07,10.36-33.74,10.36s-22.37-3.24-30.02-9.71c-7.45-6.28-11.17-14.47-11.17-24.57,0-11.24,4.55-20.43,13.65-27.57,9.51-7.52,21.07-11.28,34.67-11.28M1240.16,198.5c4.6,0,6.9-2.69,6.9-8.07,0-4-.58-8.55-1.75-13.64-1.16-5.09-2.57-9.24-4.23-12.43-1.71-3.24-4.09-4.9-7.14-5-2.28,0-4.1.77-5.47,2.32-1.37,1.55-2.06,3.61-2.06,6.18,0,2.86.58,6.75,1.75,11.68,1.16,4.93,2.55,9.3,4.15,13.11,1.6,3.9,4.21,5.86,7.83,5.86M1240.16,132.87c-15.84,0-29.6,4.52-40.88,13.44-11.41,8.95-17.45,21.2-17.45,35.41,0,13.13,4.95,23.97,14.72,32.21,9.46,8.01,21.73,12.07,36.47,12.07s28-4.1,39.49-12.17c16.27-11.44,19.69-25.1,19.69-34.54,0-7.69-2.09-15.12-6.2-22.08v-.02s-.03-.02-.03-.02c-3.9-6.52-9.14-11.89-15.57-15.96-8.72-5.53-18.9-8.33-30.24-8.33h0Z" style="fill:#ebf2c9;"/><path d="M1351.19,221c-6.78,0-12.3-2.22-16.41-6.6-.21.12-.46.28-.75.49-6.06,4.07-12.92,6.11-20.47,6.11s-14.14-1.61-19.13-4.78c-3.44-2.21-6.18-5.11-8.18-8.65-2.02-3.58-3.05-7.4-3.05-11.35,0-6.43,2.76-12.12,8.22-16.9,1.98-1.75,4.2-3.28,6.65-4.59-2.28-.48-4.29-1.46-6-2.94-2.71-2.33-4.14-5.52-4.14-9.21s1.42-6.93,4.22-10.14c2.41-2.76,5.65-5.18,9.63-7.18,10.06-4.91,20.66-7.39,31.56-7.39,9.96,0,18.6,2.4,25.66,7.13,4.08,2.76,7.01,6.04,8.71,9.75,1.64,3.58,2.43,8.15,2.43,13.97l-.16,10.71c0,8.97.92,11.48,1.12,11.92.28.06.67.12,1.19.2,4.11.59,6.77,3.71,6.77,7.95,0,3.44-1.38,6.9-4.09,10.27-2.41,3-5.53,5.52-9.28,7.5-4.56,2.46-9.46,3.72-14.51,3.72ZM1327.36,189.31c-.47.12-1,.39-1.57.98-.77.78-1.09,1.57-1.09,2.64s.2,1.83.6,2.3c.16.18.29.34.92.34.29,0,.41-.04.42-.05-.02,0,.78-.92.78-4.6,0-.68-.02-1.21-.06-1.62ZM1324.66,160.01c-.52,0-.9.11-1.27.37-.37.26-1.46,1.15-3.5,3.73-1.66,2.18-3.38,4.04-5.15,5.57,3.24-.44,6.7-.66,10.36-.68.76,0,1.37-.02,1.84-.05-.04-5.46-.83-7.63-1.17-8.31-.25-.5-.35-.64-1.12-.64Z" style="fill:url(#_무제_그라디언트_125-8);"/><path d="M1333.35,142.87c9,0,16.63,2.1,22.88,6.28,3.31,2.24,5.62,4.8,6.94,7.68,1.32,2.88,1.98,6.85,1.98,11.89l-.16,10.64c0,7.38.57,12.17,1.71,14.36.57,1.05,1.11,1.71,1.63,2,.52.29,1.6.55,3.26.79,1.65.24,2.48,1.24,2.48,3,0,2.29-1,4.67-2.99,7.14-1.99,2.48-4.56,4.55-7.72,6.21-3.88,2.09-7.94,3.14-12.18,3.14-5.43,0-9.72-1.71-12.88-5.14-1.09-1.24-2.09-1.86-3.03-1.86-1.04,0-2.4.6-4.11,1.79-5.17,3.48-11.04,5.21-17.61,5.21s-12.26-1.33-16.44-4c-2.74-1.76-4.91-4.06-6.52-6.89-1.6-2.83-2.4-5.8-2.4-8.89,0-4.95,2.17-9.33,6.52-13.14,6.77-6,16.91-9.02,30.41-9.07,3,0,4.89-.27,5.66-.82.78-.55,1.16-1.82,1.16-3.82,0-5.05-.57-8.7-1.71-10.96-1.14-2.26-3-3.39-5.58-3.39-1.55,0-2.94.43-4.15,1.29-1.22.86-2.73,2.43-4.54,4.71-4.6,6.05-9.41,9.07-14.43,9.07-2.53,0-4.6-.69-6.21-2.07-1.6-1.38-2.4-3.19-2.4-5.43s1-4.57,2.99-6.86c1.99-2.29,4.69-4.29,8.11-6,9.36-4.57,19.13-6.86,29.32-6.86M1326.21,200.58c4.14,0,6.21-3.21,6.21-9.64,0-2.62-.3-4.38-.89-5.29-.6-.9-1.72-1.38-3.37-1.43-2.28,0-4.25.86-5.93,2.57-1.68,1.71-2.52,3.76-2.52,6.14s.59,4.13,1.78,5.53c1.19,1.4,2.77,2.11,4.73,2.11M1333.35,132.87c-11.67,0-23.02,2.65-33.71,7.87l-.05.02-.05.02c-4.57,2.29-8.32,5.11-11.16,8.37-3.61,4.15-5.45,8.66-5.45,13.42s1.96,9.45,5.52,12.69c-.12.11-.25.21-.37.32-8.16,7.16-9.89,15.17-9.89,20.63,0,4.83,1.25,9.48,3.7,13.82,2.4,4.25,5.71,7.74,9.81,10.38,5.83,3.71,13.17,5.59,21.85,5.59,7.53,0,14.48-1.8,20.69-5.36,4.62,3.52,10.4,5.36,16.93,5.36,5.88,0,11.57-1.45,16.89-4.32,4.33-2.3,7.97-5.25,10.8-8.77,3.45-4.29,5.19-8.8,5.19-13.41,0-5.94-3.43-10.66-8.74-12.36-.17-1.54-.34-3.97-.34-7.7l.15-10.57v-.07s0-.07,0-.07c0-6.56-.94-11.81-2.88-16.05-2.09-4.56-5.6-8.53-10.43-11.8-7.94-5.32-17.52-8-28.49-8h0ZM1322.21,193.23h0Z" style="fill:#ebf2c9;"/><path d="M1415.44,221c-9.2,0-17.58-3.17-24.89-9.41-4.24-3.69-7.7-7.98-10.3-12.77-3.48-6.25-5.26-12.76-5.26-19.31,0-7.66,2.31-15.11,6.85-22.14,4.21-6.52,10.01-11.59,17.23-15.07,6.05-2.89,12.12-4.35,18.07-4.35,5.58,0,10.77.97,15.47,2.9,0-.17-.03-.3-.04-.38-.25-.16-.97-.55-2.53-1-7.68-2.25-8.51-7.6-8.51-9.81,0-6.02,5.04-10.39,14.99-12.98,13.79-3.52,22.9-5.23,27.87-5.23,7.2,0,11.67,4.16,11.67,10.86v65.21c0,3.4.15,4.85.23,5.4.13.13.38.34.81.61,2.44,1.56,4.07,2.98,5.12,4.44,1.26,1.77,1.9,3.85,1.9,6.2,0,6.41-5.49,10.97-16.32,13.58-7.87,1.85-15.82,2.78-23.66,2.78-2.06,0-4.68-.23-6.61-2-1.18-1.09-1.81-2.51-2.16-3.93-6,4.28-12.68,6.43-19.93,6.43ZM1428.85,163.22c-1.12.02-2.33.36-3.61,2.49-2.16,3.58-3.25,8.53-3.25,14.72,0,5.31.93,9.21,2.76,11.59.88,1.16,1.87,1.62,3.41,1.62.73,0,1.73,0,2.73-2.35.86-2.03,1.89-6.36,1.89-15.44s-1.44-11.27-1.72-11.65c-.25-.34-.67-.91-2.21-.99Z" style="fill:url(#_무제_그라디언트_125-9);"/><path d="M1464.39,116.44c4.45,0,6.67,1.95,6.67,5.86v65.21c0,3.71.17,6.09.5,7.14.34,1.05,1.28,2.07,2.83,3.07,1.86,1.19,3.11,2.24,3.76,3.14.65.91.97,2,.97,3.29,0,3.81-4.16,6.71-12.49,8.71-7.5,1.76-15,2.64-22.5,2.64-1.66,0-2.73-.23-3.22-.68-.49-.45-.81-1.54-.97-3.25-.26-2.43-1.19-3.64-2.79-3.64-.88,0-2.25.71-4.11,2.14-5.27,3.95-11.14,5.93-17.61,5.93-8.02,0-15.23-2.74-21.64-8.21-3.77-3.29-6.83-7.07-9.15-11.36-3.1-5.57-4.65-11.21-4.65-16.93,0-6.71,2.02-13.19,6.05-19.43,3.72-5.76,8.79-10.19,15.2-13.28,5.38-2.57,10.68-3.86,15.9-3.86,6,0,11.38,1.24,16.13,3.71.78.38,1.4.57,1.86.57,1.65,0,2.48-2.05,2.48-6.14,0-1.76-.45-3.11-1.36-4.04-.91-.93-2.52-1.72-4.85-2.39-3.26-.95-4.89-2.62-4.89-5,0-3.48,3.75-6.19,11.25-8.14,13.24-3.38,22.11-5.07,26.61-5.07M1428.17,198.65c3.36,0,5.8-1.8,7.33-5.39,1.52-3.59,2.29-9.39,2.29-17.39,0-7.33-.91-12.21-2.71-14.64-1.4-1.9-3.44-2.9-6.13-3-3.36,0-6.02,1.64-7.99,4.93-2.64,4.38-3.96,10.14-3.96,17.28,0,6.48,1.27,11.36,3.8,14.64,1.81,2.38,4.27,3.57,7.37,3.57M1464.39,106.44c-3.44,0-10.19.56-29.08,5.38-15.52,4.04-18.77,11.93-18.77,17.83,0,.71.07,1.89.39,3.28-6.63.04-13.36,1.66-19.99,4.83-8.09,3.91-14.57,9.58-19.29,16.88-5.08,7.85-7.65,16.22-7.65,24.86,0,7.39,1.98,14.71,5.89,21.74,2.88,5.3,6.7,10.04,11.35,14.08l.04.03.04.03c8.24,7.04,17.71,10.61,28.14,10.61,6.45,0,12.52-1.49,18.1-4.43.19.21.4.41.61.61,3.23,2.98,7.25,3.32,9.99,3.32,8.23,0,16.57-.98,24.78-2.91h.02s.02-.01.02-.01c5.44-1.31,9.61-3.01,12.75-5.2,6.44-4.49,7.4-10.22,7.4-13.24,0-3.36-.98-6.5-2.83-9.09-1.22-1.7-2.89-3.27-5.2-4.88-.02-.67-.04-1.55-.04-2.67v-65.21c0-9.48-6.7-15.86-16.67-15.86h0ZM1427.3,184.88c-.18-1.17-.31-2.63-.31-4.45,0-2.83.24-5.31.73-7.43.04.84.06,1.8.06,2.86,0,4.02-.21,6.93-.48,9.02h0Z" style="fill:#ebf2c9;"/><polygon points="481.75 131.87 482.84 114.7 465.64 114.31 479.75 104.46 469.33 90.77 485.82 95.66 490.03 78.98 496.49 94.92 512.16 87.81 503.73 102.8 519.05 110.62 502.07 113.37 505.52 130.23 492.78 118.67 481.75 131.87" style="fill:url(#_무제_그라디언트_125-10);"/><circle cx="417.15" cy="82.35" r="7.55" style="fill:#ebf2c9;"/><circle cx="746.47" cy="120.87" r="10.57" style="fill:#ebf2c9;"/><circle cx="760.82" cy="101.99" r="6.8" style="fill:#ebf2c9;"/><circle cx="1017.63" cy="179.03" r="6.8" style="fill:#ebf2c9;"/><circle cx="1265.76" cy="130.31" r="10.95" style="fill:#ebf2c9;"/><circle cx="1247.25" cy="111.81" r="6.04" style="fill:#ebf2c9;"/><circle cx="1024.81" cy="192.25" r="3.4" style="fill:#ebf2c9;"/><circle cx="785.75" cy="156.37" r="9.82" style="fill:#ebf2c9;"/><circle cx="433.39" cy="100.85" r="4.91" style="fill:#ebf2c9;"/><g style="clip-path:url(#clippath);"><polygon points="1422.04 391.4 964.31 319.88 504.43 399.99 44 318.83 122.5 1086.93 504.43 1084.56 504.43 1085.51 964.85 1085.51 964.85 1085.04 1415.59 1085.04 1415.57 1086.47 1812.92 1086.47 1876 320.74 1422.04 391.4" style="fill:#afe9d7;"/><polygon points="1425.32 419.89 964.06 352.49 506.84 428.95 77 354.5 152.67 1086.93 520.84 1084.67 520.84 1085.58 964.68 1085.58 964.68 1085.13 1399.17 1085.13 1399.16 1086.49 1782.19 1086.49 1843 356.32 1425.32 419.89" style="fill:#fff; opacity:.3;"/><g style="clip-path:url(#clippath-1);"><rect x="516.71" y="338.43" width="180.03" height="781.19" transform="translate(-26.71 23.08) rotate(-2.13)" style="fill:url(#_무제_그라디언트_65);"/><rect x="1114.14" y="650.88" width="781.18" height="180.03" transform="translate(730.35 2228.67) rotate(-88.72)" style="fill:url(#_무제_그라디언트_65-2);"/><rect x="965.11" y="303" width="180.03" height="795.81" style="fill:url(#_무제_그라디언트_65-3);"/></g></g><path d="M1692.49,811.5c-7.25-38.12-23.91-67.57-49.51-87.52-42.86-33.41-96.74-27.59-138.9-18.79-45.08,9.42-99.22,27.61-183.03,56.45-89.8,30.9-149.12,57.29-206.49,82.81-15.83,7.04-32.2,14.32-48.7,21.46-87.25,37.73-177.46,76.74-250.9,101.99-37.21,12.79-68.21,21.38-92.15,25.51-12.51,2.16-21.54,2.84-27.82,2.89-1.72.01-3.06-1.49-2.84-3.2,1.66-12.84,7.42-37.15,25.33-80.45,21.95-53.09,55.2-118.55,90.4-187.86,11.28-22.2,21.08-40.43,29.72-56.5,13.6-25.28,23.42-43.54,29.5-59.99,11.27-30.47,9.36-57.34-5.68-79.87-10.79-16.16-32.67-35.91-75.61-38.2-24.54-1.31-55.45,3.02-94.49,13.23-75.45,19.74-182.37,61.4-325.94,127.04-12.88-6.09-27.28-9.5-42.47-9.5-54.95,0-99.5,44.55-99.5,99.5s44.55,99.5,99.5,99.5c51.78,0,94.31-39.55,99.05-90.09,106.69-48.51,193.15-83.52,257.47-104.25,22.57-7.27,40.53-12.16,54.71-15.43,2.37-.55,4.29,1.95,3.13,4.1-8.5,15.81-19.08,35.48-30.96,58.88-40.68,80.1-79.1,155.75-102.68,217.45-13.72,35.88-21.79,65.42-24.68,90.31-4.42,38.04,3.06,68.98,22.23,91.94,1.82,2.18,3.73,4.27,5.72,6.26.53.53,1.26.83,2.01.83h229.66c.31,0,.61-.05.9-.14,80.49-26.74,177.56-68.71,271.62-109.38,17.05-7.37,33.7-14.78,49.79-21.94,55.14-24.53,112.15-49.89,197.26-79.18,74.46-25.62,126.12-43.06,164.32-51.59,35.67-7.97,47.38-5.13,49.93-4.2.38.14.73.35,1.02.63,4.63,4.55,14.39,28.06,6.13,85.33-7.06,48.91-25.71,110.43-53.3,176.55-.78,1.87.58,3.93,2.61,3.93h116.48c1.18,0,2.24-.74,2.66-1.84,22.31-59.39,37.4-114.47,44.31-162.35,5.75-39.84,5.83-74.93.24-104.3Z" style="fill:#ebf2c9;"/></g></svg>