<?xml version="1.0" encoding="UTF-8"?><svg id="_레이어_2" xmlns="http://www.w3.org/2000/svg" xmlns:xlink="http://www.w3.org/1999/xlink" viewBox="0 0 1920 1080"><defs><linearGradient id="_무제_그라디언트_148" x1="960" y1="0" x2="960" y2="1080" gradientUnits="userSpaceOnUse"><stop offset="0" stop-color="#8996e4"/><stop offset=".29" stop-color="#b0bdee"/><stop offset=".59" stop-color="#d3e1f7"/><stop offset=".84" stop-color="#e9f7fc"/><stop offset="1" stop-color="#f1ffff"/></linearGradient><clipPath id="clippath"><circle cx="959.15" cy="239.9" r="118.4" style="fill:#ffe8dc;"/></clipPath></defs><g id="_레이어_1-2"><rect width="1920" height="1080" style="fill:url(#_무제_그라디언트_148);"/><rect x="736.83" y="121.5" width="446.35" height="837" style="fill:none;"/><rect x="862.72" y="572.32" width="194.56" height="72.81" style="fill:#ffe8dc;"/><rect x="865.05" y="675.54" width="79.86" height="271.9" rx="29.81" ry="29.81" style="fill:#ffe8dc;"/><path d="M895.22,900.56h19.53c21.75,0,39.42,17.66,39.42,39.42h0c0,10.22-8.3,18.52-18.52,18.52h-61.33c-10.22,0-18.52-8.3-18.52-18.52h0c0-21.75,17.66-39.42,39.42-39.42Z" style="fill:#ededed;"/><rect x="973.81" y="675.54" width="79.86" height="271.9" rx="29.81" ry="29.81" style="fill:#ffe8dc;"/><path d="M1003.97,900.56h19.53c21.75,0,39.42,17.66,39.42,39.42h0c0,10.22-8.3,18.52-18.52,18.52h-61.33c-10.22,0-18.52-8.3-18.52-18.52h0c0-21.75,17.66-39.42,39.42-39.42Z" style="fill:#ededed;"/><polygon points="861.84 621.16 861.84 685.22 861.84 695.36 861.84 759.42 946.59 759.42 946.59 695.36 973.41 695.36 973.41 759.42 1058.16 759.42 1058.16 695.36 1058.16 685.22 1058.16 621.16 861.84 621.16" style="fill:#ededed;"/><path d="M979.09,324.38s-21.2-59.91,21.2-70.05,68.2,52.54,68.2,52.54c0,0,31.34,74.66,83.87,28.57,0,0-15.91,50.54-38.71,64.52-85.72,52.54-134.57-75.58-134.57-75.58Z" style="fill:#4b3100;"/><circle cx="959.15" cy="239.9" r="118.4" style="fill:#ffe8dc;"/><g style="clip-path:url(#clippath);"><rect x="825.6" y="965.21" width="41.91" height="83.31" style="fill:#ffe8dc;"/><rect x="1256.3" y="919.77" width="65.64" height="51" style="fill:#ffe8dc;"/></g><path d="M959.15,121.5c-65.39,0-118.4,53.01-118.4,118.4,0,.4.01.8.02,1.2,24.03-7.07,45.15-18.9,61.52-34.04h113.74c16.37,15.15,37.49,26.97,61.52,34.04,0-.4.02-.8.02-1.2,0-65.39-53.01-118.4-118.4-118.4Z" style="fill:#4b3100;"/><rect x="888.65" y="183.15" width="141.02" height="53.43" style="fill:#ff76a0;"/><rect x="895.99" y="180.14" width="126.33" height="59.45" style="fill:#ffb6c9;"/><rect x="899.66" y="180.14" width="16.89" height="59.45" style="fill:#4b3100;"/><rect x="942.26" y="180.14" width="16.89" height="59.45" style="fill:#4b3100;"/><rect x="979.72" y="180.14" width="16.89" height="59.45" style="fill:#4b3100;"/><rect x="1004.69" y="180.14" width="16.89" height="59.45" style="fill:#4b3100;"/><rect x="924.64" y="180.14" width="8.08" height="59.45" style="fill:#4b3100;"/><path d="M959.92,375.08h0c55.5,0,100.56,45.06,100.56,100.56v128.02c0,2.54-2.06,4.61-4.61,4.61h-191.91c-2.54,0-4.61-2.06-4.61-4.61v-128.02c0-55.5,45.06-100.56,100.56-100.56Z" style="fill:#ededed;"/><path d="M819.24,626.87l76.37-202.26-55.48-20.95-76.37,202.26c-12.04,2.02-21.65,8.38-25.35,18.18-6.53,17.31,7.83,38.76,32.09,47.92,24.26,9.16,49.22,2.55,55.75-14.75,3.7-9.8.69-20.93-7.01-30.4Z" style="fill:#ffe8dc;"/><path d="M866.22,379.48h0c23.62,0,42.8,19.18,42.8,42.8v70.11c0,5.09-4.13,9.22-9.22,9.22h-67.17c-5.09,0-9.22-4.13-9.22-9.22v-70.11c0-23.62,19.18-42.8,42.8-42.8Z" transform="translate(207.16 -273.64) rotate(20.34)" style="fill:#ededed;"/><path d="M1100.76,626.87l-76.37-202.26,55.48-20.95,76.37,202.26c12.04,2.02,21.65,8.38,25.35,18.18,6.53,17.31-7.83,38.76-32.09,47.92-24.26,9.16-49.22,2.55-55.75-14.75-3.7-9.8-.69-20.93,7.01-30.4Z" style="fill:#ffe8dc;"/><path d="M1026.76,379.48h67.17c5.09,0,9.22,4.13,9.22,9.22v70.11c0,23.62-19.18,42.8-42.8,42.8h0c-23.62,0-42.8-19.18-42.8-42.8v-70.11c0-5.09,4.13-9.22,9.22-9.22Z" transform="translate(2207.7 485.01) rotate(159.66)" style="fill:#ededed;"/><circle cx="915.42" cy="266.32" r="7.37" style="fill:#4b3100;"/><circle cx="1003.9" cy="266.32" r="7.37" style="fill:#4b3100;"/><path d="M927.99,298.58c1.37,16.29,15.02,29.08,31.66,29.08s30.29-12.8,31.66-29.08h-63.32Z" style="fill:#ffc7d4;"/><path d="M980.37,319.14c-5.56-4.79-12.8-7.69-20.71-7.69s-15.15,2.9-20.71,7.69c5.56,4.79,12.8,7.69,20.71,7.69s15.15-2.9,20.71-7.69Z" style="fill:#dd7292;"/><rect x="871.26" y="380.61" width="181.57" height="91.25" style="fill:#ededed;"/><path d="M924.17,337.29h70.97v42.35c0,17.32-14.06,31.39-31.39,31.39h-8.19c-17.32,0-31.39-14.06-31.39-31.39v-42.35h0Z" style="fill:#ffe8dc;"/></g></svg>