<?xml version="1.0" encoding="UTF-8"?><svg id="_레이어_2" xmlns="http://www.w3.org/2000/svg" xmlns:xlink="http://www.w3.org/1999/xlink" viewBox="0 0 1920 1080"><defs><linearGradient id="_무제_그라디언트_62" x1="960" y1="0" x2="960" y2="1080" gradientUnits="userSpaceOnUse"><stop offset="0" stop-color="#89b1e4"/><stop offset=".11" stop-color="#a4c3ea"/><stop offset=".27" stop-color="#c4d8f1"/><stop offset=".44" stop-color="#dee9f7"/><stop offset=".61" stop-color="#f0f5fb"/><stop offset=".8" stop-color="#fbfcfe"/><stop offset="1" stop-color="#fff"/></linearGradient><clipPath id="clippath"><rect x="245" y="98" width="1437" height="982" style="fill:none;"/></clipPath><linearGradient id="_무제_그라디언트_43" x1="459.71" y1="24.29" x2="1473.54" y2="1038.12" gradientUnits="userSpaceOnUse"><stop offset="0" stop-color="#909eb4"/><stop offset=".12" stop-color="#42597f"/><stop offset=".78" stop-color="#dadfe6"/><stop offset="1" stop-color="#42597f"/></linearGradient><linearGradient id="_무제_그라디언트_165" x1="931.49" y1="599.91" x2="1606.67" y2="-640.54" gradientUnits="userSpaceOnUse"><stop offset="0" stop-color="#40587e"/><stop offset=".49" stop-color="#466189"/><stop offset="1" stop-color="#4f709b"/></linearGradient><linearGradient id="_무제_그라디언트_43-2" x1="456.88" y1="-1917.13" x2="1473.88" y2="-900.13" gradientTransform="translate(0 -121.49) scale(1 -1)" xlink:href="#_무제_그라디언트_43"/><linearGradient id="_무제_그라디언트_164" x1="467.49" y1="-911.35" x2="1464.64" y2="-1908.5" gradientTransform="translate(0 -121.49) scale(1 -1)" gradientUnits="userSpaceOnUse"><stop offset="0" stop-color="#40587e"/><stop offset=".5" stop-color="#46628a"/><stop offset="1" stop-color="#4f709b"/></linearGradient><linearGradient id="_무제_그라디언트_169" x1="646.73" y1="1196.24" x2="1286.51" y2="556.46" gradientUnits="userSpaceOnUse"><stop offset="0" stop-color="#40587e"/><stop offset="1" stop-color="#415980"/></linearGradient><linearGradient id="_무제_그라디언트_105" x1="966.73" y1="904.95" x2="966.73" y2="980.81" gradientUnits="userSpaceOnUse"><stop offset=".04" stop-color="#4a6085"/><stop offset=".27" stop-color="#7586a2"/><stop offset=".37" stop-color="#6f819e"/><stop offset=".49" stop-color="#607494"/><stop offset=".62" stop-color="#485e83"/><stop offset=".65" stop-color="#42597f"/><stop offset="1" stop-color="#232a3b"/></linearGradient><linearGradient id="_무제_그라디언트_105-2" x1="359.43" x2="359.43" y2="985.78" xlink:href="#_무제_그라디언트_105"/><linearGradient id="_무제_그라디언트_105-3" x1="1571.86" x2="1571.86" y2="985.78" gradientTransform="translate(3143.71 1890.73) rotate(-180)" xlink:href="#_무제_그라디언트_105"/><linearGradient id="_무제_그라디언트_129" x1="966.73" y1="863.92" x2="966.73" y2="904.95" gradientUnits="userSpaceOnUse"><stop offset=".34" stop-color="#42597f"/><stop offset=".53" stop-color="#475d82"/><stop offset=".77" stop-color="#576b8c"/><stop offset=".82" stop-color="#5c7090"/><stop offset=".89" stop-color="#556a8b"/><stop offset=".99" stop-color="#435a7f"/><stop offset="1" stop-color="#42597f"/></linearGradient><linearGradient id="_무제_그라디언트_136" x1="472.43" y1="558" x2="1458.53" y2="558" gradientUnits="userSpaceOnUse"><stop offset="0" stop-color="#0b0d0d"/><stop offset=".29" stop-color="#101212"/><stop offset=".65" stop-color="#202121"/><stop offset="1" stop-color="#363737"/></linearGradient><linearGradient id="_무제_그라디언트_136-2" x1="540.97" y1="1292.48" x2="1368.45" y2="1292.48" xlink:href="#_무제_그라디언트_136"/><radialGradient id="_무제_그라디언트_195" cx="565.9" cy="186.34" fx="565.9" fy="186.34" r="17.29" gradientUnits="userSpaceOnUse"><stop offset="0" stop-color="#283e5e"/><stop offset=".18" stop-color="#2b4263"/><stop offset=".42" stop-color="#344e73"/><stop offset=".68" stop-color="#43628d"/><stop offset=".71" stop-color="#466692"/><stop offset=".76" stop-color="#4c6c98"/><stop offset=".82" stop-color="#5d7fab"/><stop offset=".89" stop-color="#799fca"/><stop offset=".93" stop-color="#8db4df"/><stop offset=".96" stop-color="#5c7ba1"/><stop offset="1" stop-color="#283e5e"/></radialGradient><radialGradient id="_무제_그라디언트_195-2" cx="1403.52" fx="1403.52" r="17.29" xlink:href="#_무제_그라디언트_195"/></defs><g id="_레이어_1-2"><rect width="1920" height="1080" style="fill:url(#_무제_그라디언트_62);"/><g style="clip-path:url(#clippath);"><path d="M389.29,135h1154.66c53.69,0,97.27,43.59,97.27,97.27v633.68c0,5.97-4.84,10.81-10.81,10.81H302.83c-5.97,0-10.81-4.84-10.81-10.81V232.27c0-53.69,43.59-97.27,97.27-97.27Z" style="fill:url(#_무제_그라디언트_43);"/><path d="M391.83,142.57h1149.01c50.08,0,90.73,40.65,90.73,90.73v626.11c0,4.77-3.87,8.65-8.65,8.65H309.75c-4.77,0-8.65-3.87-8.65-8.65V233.3c0-50.08,40.65-90.73,90.73-90.73Z" style="fill:url(#_무제_그라디언트_165);"/><path d="M290.77,944.75h1349.21v644.49c0,53.69-43.59,97.27-97.27,97.27H388.05c-53.69,0-97.27-43.59-97.27-97.27v-644.49h0Z" style="fill:url(#_무제_그라디언트_43-2);"/><path d="M303.9,953.45h1324.34v632.38c0,50.08-40.65,90.73-90.73,90.73H394.63c-50.08,0-90.73-40.65-90.73-90.73v-632.38h0Z" style="fill:url(#_무제_그라디언트_164);"/><rect x="355.44" y="847.75" width="1222.37" height="57.2" style="fill:url(#_무제_그라디언트_169);"/><rect x="355.54" y="904.95" width="1222.37" height="75.85" style="fill:url(#_무제_그라디언트_105);"/><path d="M316.98,904.95h110.85v80.83h-110.85c-14.32,0-25.94-11.62-25.94-25.94v-28.95c0-14.32,11.62-25.94,25.94-25.94Z" style="fill:url(#_무제_그라디언트_105-2);"/><path d="M1529.4,904.95h110.85v80.83h-110.85c-14.32,0-25.94-11.62-25.94-25.94v-28.95c0-14.32,11.62-25.94,25.94-25.94Z" transform="translate(3143.71 1890.73) rotate(180)" style="fill:url(#_무제_그라디언트_105-3);"/><rect x="355.54" y="863.92" width="1222.37" height="41.04" style="fill:url(#_무제_그라디언트_129);"/><rect x="441.34" y="232.21" width="1052.01" height="652.08" rx="12.88" ry="12.88" style="fill:#344a6d;"/><rect x="461.23" y="254.19" width="1009.84" height="608.92" rx="12.97" ry="12.97" style="fill:#232121;"/><rect x="472.43" y="264.53" width="986.1" height="586.94" rx="9.24" ry="9.24" style="fill:url(#_무제_그라디언트_136);"/><rect x="514.89" y="1019.1" width="882.78" height="547.18" rx="12.88" ry="12.88" style="fill:#344a6d;"/><rect x="531.57" y="1037.54" width="847.39" height="510.96" rx="12.97" ry="12.97" style="fill:#232121;"/><rect x="540.97" y="1046.22" width="827.47" height="492.52" rx="9.24" ry="9.24" style="fill:url(#_무제_그라디언트_136-2);"/><circle cx="966.67" cy="185.71" r="18.04" style="fill:#161d26;"/><circle cx="966.67" cy="185.71" r="9.96" style="fill:#969696;"/><circle cx="966.67" cy="185.71" r="4.91" style="fill:#3f3f40;"/><circle cx="1006.4" cy="185.64" r="9.26" style="fill:#161d26;"/><circle cx="1006.4" cy="185.64" r="5.12" style="fill:#969696;"/><circle cx="1006.4" cy="185.64" r="2.52" style="fill:#3f3f40;"/><circle cx="376.76" cy="479.78" r="5.4" style="fill:#1a1d2e;"/><circle cx="376.76" cy="502.47" r="5.4" style="fill:#1a1d2e;"/><circle cx="376.76" cy="525.17" r="5.4" style="fill:#1a1d2e;"/><circle cx="401.62" cy="502.47" r="5.4" style="fill:#1a1d2e;"/><circle cx="351.9" cy="502.47" r="5.4" style="fill:#1a1d2e;"/><circle cx="1555.92" cy="479.78" r="5.4" style="fill:#1a1d2e;"/><circle cx="1555.92" cy="502.47" r="5.4" style="fill:#1a1d2e;"/><circle cx="1555.92" cy="525.17" r="5.4" style="fill:#1a1d2e;"/><circle cx="1580.78" cy="502.47" r="5.4" style="fill:#1a1d2e;"/><circle cx="1531.06" cy="502.47" r="5.4" style="fill:#1a1d2e;"/><circle cx="565.9" cy="186.34" r="17.29" style="fill:url(#_무제_그라디언트_195);"/><circle cx="1403.52" cy="186.34" r="17.29" style="fill:url(#_무제_그라디언트_195-2);"/></g></g></svg>